# xmcd
#
# Track frame offsets:
#	150
#	7595
#	24627
#	45245
#	67912
#	88255
#	102260
#	120099
#	133747
#	174835
#	189757
# Disc length: 2827 seconds
# Revision: 1
# Processed by: cddbd v1.5.2PL0 Copyright (c) Steve Scherf et al.
#
# Submitted via: libkcddb 0.31
#
DISCID=720b090b
DTITLE=David Bromberg - WFUV 90.7FM  Bronx, NY, February 12, 2007 [CD1]
DYEAR=2007
DGENRE=Blues
TTITLE0=Intro
TTITLE1=Demon in Disguise
TTITLE2=Try Me One More Time
TTITLE3=Everything I Had Is Gone
TTITLE4=Hey Bub
TTITLE5=I Belong to That Band
TTITLE6=Kind Hearted Woman
TTITLE7=Love Changing Blues
TTITLE8=Interview
TTITLE9=Nobody Knows You When You're Down and Out
TTITLE10=Who's Loving You Tonight?
EXTD=
EXTT0=
EXTT1=
EXTT2=
EXTT3=
EXTT4=
EXTT5=
EXTT6=
EXTT7=
EXTT8=
EXTT9=
EXTT10=
PLAYORDER=
